<mxfile host="app.diagrams.net" modified="2021-02-17T09:55:06.251Z" agent="5.0 (Windows NT 10.0; WOW64) AppleWebKit/537.36 (KHTML, like Gecko) Chrome/89.0.4385.0 Safari/537.36" etag="PL6B0a6xkYOkVZ5HDlxU" version="14.3.2" type="github" pages="2">
  <diagram id="orrq4jrZ4coOy2VoVbbB" name="Page-1">
    <mxGraphModel dx="782" dy="381" grid="1" gridSize="10" guides="1" tooltips="1" connect="1" arrows="1" fold="1" page="1" pageScale="1" pageWidth="827" pageHeight="1169" math="0" shadow="0">
      <root>
        <mxCell id="0" />
        <mxCell id="1" parent="0" />
        <mxCell id="Lh4PSJ8hH-8-BIO5ha3O-17" value="1" style="ellipse;whiteSpace=wrap;html=1;aspect=fixed;strokeWidth=3;fillColor=none;fontSize=26;fontStyle=1" vertex="1" parent="1">
          <mxGeometry x="330" y="40" width="40" height="40" as="geometry" />
        </mxCell>
        <mxCell id="Lh4PSJ8hH-8-BIO5ha3O-18" value="2" style="ellipse;whiteSpace=wrap;html=1;aspect=fixed;strokeWidth=3;fillColor=none;fontSize=26;fontStyle=1" vertex="1" parent="1">
          <mxGeometry x="220" y="100" width="40" height="40" as="geometry" />
        </mxCell>
        <mxCell id="Lh4PSJ8hH-8-BIO5ha3O-19" value="4" style="ellipse;whiteSpace=wrap;html=1;aspect=fixed;strokeWidth=3;fillColor=none;fontSize=26;fontStyle=1" vertex="1" parent="1">
          <mxGeometry x="450" y="130" width="40" height="40" as="geometry" />
        </mxCell>
        <mxCell id="Lh4PSJ8hH-8-BIO5ha3O-20" value="3" style="ellipse;whiteSpace=wrap;html=1;aspect=fixed;strokeWidth=3;fillColor=none;fontSize=26;fontStyle=1" vertex="1" parent="1">
          <mxGeometry x="330" y="150" width="40" height="40" as="geometry" />
        </mxCell>
        <mxCell id="Lh4PSJ8hH-8-BIO5ha3O-21" value="" style="endArrow=classic;html=1;strokeWidth=3;fontSize=26;entryX=1.017;entryY=0.35;entryDx=0;entryDy=0;entryPerimeter=0;exitX=-0.017;exitY=0.7;exitDx=0;exitDy=0;exitPerimeter=0;" edge="1" parent="1" source="Lh4PSJ8hH-8-BIO5ha3O-17" target="Lh4PSJ8hH-8-BIO5ha3O-18">
          <mxGeometry width="50" height="50" relative="1" as="geometry">
            <mxPoint x="290" y="60" as="sourcePoint" />
            <mxPoint x="430" y="110" as="targetPoint" />
          </mxGeometry>
        </mxCell>
        <mxCell id="Lh4PSJ8hH-8-BIO5ha3O-23" value="" style="endArrow=classic;html=1;strokeWidth=3;fontSize=26;exitX=0.5;exitY=1;exitDx=0;exitDy=0;entryX=0.5;entryY=0;entryDx=0;entryDy=0;" edge="1" parent="1" source="Lh4PSJ8hH-8-BIO5ha3O-17" target="Lh4PSJ8hH-8-BIO5ha3O-20">
          <mxGeometry width="50" height="50" relative="1" as="geometry">
            <mxPoint x="380" y="160" as="sourcePoint" />
            <mxPoint x="430" y="110" as="targetPoint" />
          </mxGeometry>
        </mxCell>
        <mxCell id="Lh4PSJ8hH-8-BIO5ha3O-24" value="" style="endArrow=classic;html=1;strokeWidth=3;fontSize=26;exitX=1;exitY=1;exitDx=0;exitDy=0;" edge="1" parent="1" source="Lh4PSJ8hH-8-BIO5ha3O-17" target="Lh4PSJ8hH-8-BIO5ha3O-19">
          <mxGeometry width="50" height="50" relative="1" as="geometry">
            <mxPoint x="380" y="160" as="sourcePoint" />
            <mxPoint x="430" y="110" as="targetPoint" />
          </mxGeometry>
        </mxCell>
        <mxCell id="Lh4PSJ8hH-8-BIO5ha3O-25" value="5" style="ellipse;whiteSpace=wrap;html=1;aspect=fixed;strokeWidth=3;fillColor=none;fontSize=26;fontStyle=1" vertex="1" parent="1">
          <mxGeometry x="160" y="160" width="40" height="40" as="geometry" />
        </mxCell>
        <mxCell id="Lh4PSJ8hH-8-BIO5ha3O-26" value="6" style="ellipse;whiteSpace=wrap;html=1;aspect=fixed;strokeWidth=3;fillColor=none;fontSize=26;fontStyle=1" vertex="1" parent="1">
          <mxGeometry x="260" y="190" width="40" height="40" as="geometry" />
        </mxCell>
        <mxCell id="Lh4PSJ8hH-8-BIO5ha3O-27" value="" style="endArrow=classic;html=1;strokeWidth=3;fontSize=26;exitX=0;exitY=1;exitDx=0;exitDy=0;entryX=1;entryY=0;entryDx=0;entryDy=0;" edge="1" parent="1" source="Lh4PSJ8hH-8-BIO5ha3O-18" target="Lh4PSJ8hH-8-BIO5ha3O-25">
          <mxGeometry width="50" height="50" relative="1" as="geometry">
            <mxPoint x="380" y="160" as="sourcePoint" />
            <mxPoint x="430" y="110" as="targetPoint" />
          </mxGeometry>
        </mxCell>
        <mxCell id="Lh4PSJ8hH-8-BIO5ha3O-28" value="" style="endArrow=classic;html=1;strokeWidth=3;fontSize=26;exitX=1;exitY=1;exitDx=0;exitDy=0;entryX=0.5;entryY=0;entryDx=0;entryDy=0;" edge="1" parent="1" source="Lh4PSJ8hH-8-BIO5ha3O-18" target="Lh4PSJ8hH-8-BIO5ha3O-26">
          <mxGeometry width="50" height="50" relative="1" as="geometry">
            <mxPoint x="380" y="160" as="sourcePoint" />
            <mxPoint x="430" y="110" as="targetPoint" />
          </mxGeometry>
        </mxCell>
        <mxCell id="lktG_1myIH9GRCD3iT9O-1" value="1" style="text;html=1;strokeColor=none;fillColor=none;align=center;verticalAlign=middle;whiteSpace=wrap;rounded=0;fontSize=26;fontStyle=1;fontColor=#0000FF;" vertex="1" parent="1">
          <mxGeometry x="270" y="70" width="40" height="20" as="geometry" />
        </mxCell>
        <mxCell id="lktG_1myIH9GRCD3iT9O-2" value="2" style="text;html=1;strokeColor=none;fillColor=none;align=center;verticalAlign=middle;whiteSpace=wrap;rounded=0;fontSize=26;fontColor=#0000FF;fontStyle=1" vertex="1" parent="1">
          <mxGeometry x="320" y="100" width="40" height="20" as="geometry" />
        </mxCell>
        <mxCell id="lktG_1myIH9GRCD3iT9O-3" value="3" style="text;html=1;strokeColor=none;fillColor=none;align=center;verticalAlign=middle;whiteSpace=wrap;rounded=0;fontSize=26;fontColor=#0000FF;fontStyle=1" vertex="1" parent="1">
          <mxGeometry x="390" y="80" width="40" height="20" as="geometry" />
        </mxCell>
        <mxCell id="lktG_1myIH9GRCD3iT9O-4" value="4" style="text;html=1;strokeColor=none;fillColor=none;align=center;verticalAlign=middle;whiteSpace=wrap;rounded=0;fontSize=26;fontColor=#0000FF;fontStyle=1" vertex="1" parent="1">
          <mxGeometry x="180" y="130" width="40" height="20" as="geometry" />
        </mxCell>
        <mxCell id="lktG_1myIH9GRCD3iT9O-5" value="5" style="text;html=1;strokeColor=none;fillColor=none;align=center;verticalAlign=middle;whiteSpace=wrap;rounded=0;fontSize=26;fontColor=#0000FF;fontStyle=1" vertex="1" parent="1">
          <mxGeometry x="260" y="150" width="40" height="20" as="geometry" />
        </mxCell>
      </root>
    </mxGraphModel>
  </diagram>
  <diagram id="EanhCVILf648CVf5wFGo" name="Page-2">
    <mxGraphModel dx="782" dy="381" grid="1" gridSize="10" guides="1" tooltips="1" connect="1" arrows="1" fold="1" page="1" pageScale="1" pageWidth="827" pageHeight="1169" math="0" shadow="0">
      <root>
        <mxCell id="9kqw1NdLuSJzwszws_6m-0" />
        <mxCell id="9kqw1NdLuSJzwszws_6m-1" parent="9kqw1NdLuSJzwszws_6m-0" />
      </root>
    </mxGraphModel>
  </diagram>
</mxfile>
